<svg xmlns="http://www.w3.org/2000/svg" viewBox="0 0 80 50.98"><defs><style>.cls-1{fill:#aeafab;fill-rule:evenodd;}</style></defs><title>programy-myjnie-optimum</title><g id="Layer_2" data-name="Layer 2"><g id="myjnie-page"><g id="optimum"><path class="cls-1" d="M72.85,14.47A13.1,13.1,0,0,0,71.09,20a5,5,0,0,0,.83,3.82,3.93,3.93,0,0,0,2.47,1.29,3.83,3.83,0,0,0,2.71-.65.46.46,0,0,1,.1-.07,3,3,0,0,0,.9-1.68,2.47,2.47,0,0,0-.44-2,.44.44,0,0,1-.1-.11,1.64,1.64,0,0,0-1.09-.54,1.86,1.86,0,0,0-.92.17,1.61,1.61,0,0,0-.68.59,2.1,2.1,0,0,0-.2,1.45.65.65,0,1,1-1.28.24,3.39,3.39,0,0,1,.36-2.38A3.1,3.1,0,0,1,75,19.11a3.21,3.21,0,0,1,1.59-.28,2.84,2.84,0,0,1,2,1l.15.17a3.72,3.72,0,0,1,.71,3,4.43,4.43,0,0,1-1.34,2.43l-.15.12a5.16,5.16,0,0,1-3.67.92A5.29,5.29,0,0,1,71,24.73a6.27,6.27,0,0,1-1.18-4.82,14.6,14.6,0,0,1,2-6.15.65.65,0,0,1,1.11.69m-3-2.12s-3.78,6.81-4,10.7c-.07,1.12-1.28.92-1.3-.06.17-4.2,4.12-11.25,4.12-11.28A.65.65,0,0,1,69.88,12.35Zm-2-1.48s-6,6.61-8.6,8c-.93.5-1.35-.66-.63-1.14C61,16.43,66.86,10,66.87,10,67.36,9.42,68.31,10.22,67.85,10.86ZM64.77,9.14a25.7,25.7,0,0,1-4,3.42,11.05,11.05,0,0,1-5.91,2.09,5.93,5.93,0,0,1-4.16-1.56,6.63,6.63,0,0,1-2-4.19V8.54a6.13,6.13,0,0,1,.8-3.26,3.85,3.85,0,0,1,3.1-2h.28a3.59,3.59,0,0,1,2.53,1A3.78,3.78,0,0,1,56.45,6a3.63,3.63,0,0,1,0,2.05,4.15,4.15,0,0,1-1.88,2.37c-.84.42-1.56-.48-.7-1.1a2.81,2.81,0,0,0,1.31-1.61,2.24,2.24,0,0,0,0-1.31,2.75,2.75,0,0,0-.73-1.12,2.29,2.29,0,0,0-1.63-.64h-.19a2.59,2.59,0,0,0-2.08,1.32A5.05,5.05,0,0,0,50,8.52a2.1,2.1,0,0,0,0,.28,5.26,5.26,0,0,0,1.57,3.33,4.61,4.61,0,0,0,3.29,1.21A9.48,9.48,0,0,0,60,11.46a23.88,23.88,0,0,0,3.84-3.23C64.37,7.64,65.33,8.41,64.77,9.14Zm6.14-4.59a10.42,10.42,0,0,1,3.23-3.18A9.81,9.81,0,0,1,78.69,0V3.23A5.15,5.15,0,0,0,76,4a8,8,0,0,0-2.42,2.49ZM75.65,14.7,62.5,5.25A5.5,5.5,0,0,1,70.16,4l2.11,1.52L74.4,7A5.5,5.5,0,0,1,75.65,14.7ZM39.19,17.37h5A55.88,55.88,0,0,1,56,24.66H39.19Zm-13.49,0h9.45v7.29H30.53c-4.65,0-10.92-.72-13.22-2.39A25.75,25.75,0,0,1,25.71,17.37ZM24.34,46a9.69,9.69,0,0,1-17.28-.58l-4.3-3.49A7.15,7.15,0,0,1,0,36.14V30.93C.64,30,1.33,29.08,2.05,28.2V22.34H8a55.1,55.1,0,0,1,16.58-8.82A7,7,0,0,1,27,13.11H43.51a8.2,8.2,0,0,1,4.14,1.27A130.89,130.89,0,0,1,66,26.62c8.7.26,12.14,3.63,13.22,8.84a.83.83,0,0,1,.83.83v1.15a.82.82,0,0,1-.83.82L78,45.14a1,1,0,0,1-.9.82H75.87a9.68,9.68,0,0,1-17,0Zm43-10.23a5.58,5.58,0,1,1-5.57,5.58A5.58,5.58,0,0,1,67.38,35.74Zm-51.54,0a5.58,5.58,0,1,1-5.59,5.58A5.58,5.58,0,0,1,15.83,35.74Z"/></g></g></g></svg>