<svg xmlns="http://www.w3.org/2000/svg" viewBox="0 0 80 53.19"><defs><style>.cls-1{fill:#aeafab;fill-rule:evenodd;}</style></defs><title>programy-myjnie-premium</title><g id="Layer_2" data-name="Layer 2"><g id="myjnie-page"><g id="premium"><path class="cls-1" d="M10,20.24a2.94,2.94,0,0,1-1.36-2,4.87,4.87,0,0,1-.06-1.84,5.19,5.19,0,0,1,.63-1.8A3.65,3.65,0,0,1,10.92,13a6,6,0,0,1,1.14-3.56,6.81,6.81,0,0,1,6.71-2.77A7.9,7.9,0,0,1,23,9a4.07,4.07,0,0,1,2-1,4.26,4.26,0,0,1,1.55,0A4,4,0,0,1,28,8.55a3.69,3.69,0,0,1,1.2,1.4,3.39,3.39,0,0,1,1.15-.33,3.2,3.2,0,0,1,1.25.12,3.07,3.07,0,0,1,1.14.65,2.88,2.88,0,0,1,.93,1.94c-.07,1.27-1.27.75-1.3.13a1.63,1.63,0,0,0-.52-1.12,1.82,1.82,0,0,0-.63-.35,1.86,1.86,0,0,0-.74-.08,1.79,1.79,0,0,0-1.14.54l-.86.94-.25-1.25a2.46,2.46,0,0,0-1-1.52,2.62,2.62,0,0,0-.93-.38,2.71,2.71,0,0,0-1,0,2.61,2.61,0,0,0-1.66,1.12l-.48.69-.57-.64a6.87,6.87,0,0,0-4-2.47,5.45,5.45,0,0,0-3.09.37,5.56,5.56,0,0,0-2.32,1.87,4.67,4.67,0,0,0-.86,3.2l.07.58-.58.12a2.34,2.34,0,0,0-1.44,1.16,4.32,4.32,0,0,0-.45,1.35,4,4,0,0,0,0,1.38,1.71,1.71,0,0,0,.74,1.14c.95.51.23,1.57-.66,1.14M37.65,9.88A1.13,1.13,0,1,1,36.52,11,1.12,1.12,0,0,1,37.65,9.88Zm0-1.43A2.55,2.55,0,1,1,35.1,11,2.56,2.56,0,0,1,37.65,8.45ZM24.27,1.77a1.42,1.42,0,1,1-1.43,1.42A1.42,1.42,0,0,1,24.27,1.77Zm0-1.77a3.2,3.2,0,1,1-3.21,3.19A3.21,3.21,0,0,1,24.27,0ZM4.64,18a1.42,1.42,0,1,1-1.42,1.43A1.41,1.41,0,0,1,4.64,18Zm0-1.78a3.2,3.2,0,1,1-3.19,3.2A3.21,3.21,0,0,1,4.64,16.18Zm34.57,3.4h5A55.05,55.05,0,0,1,56,26.87H39.21Zm-13.49,0h9.45v7.29H30.53c-4.65,0-10.91-.74-13.22-2.39A25.76,25.76,0,0,1,25.72,19.58ZM24.34,48.17A9.71,9.71,0,0,1,7,47.59L2.76,44.11A7.2,7.2,0,0,1,0,38.34V33.12q1-1.4,2.06-2.73V24.55H8a54.76,54.76,0,0,1,16.58-8.83,7.17,7.17,0,0,1,2.44-.41H43.53a8.24,8.24,0,0,1,4.13,1.25A133.37,133.37,0,0,1,66,28.82c8.69.26,12.13,3.63,13.22,8.85a.82.82,0,0,1,.82.84v1.14a.82.82,0,0,1-.82.83L78,47.36a1,1,0,0,1-.89.81H75.86a9.68,9.68,0,0,1-17,0Zm43-10.23a5.58,5.58,0,1,1-5.58,5.58A5.59,5.59,0,0,1,67.39,37.94Zm-51.55,0a5.58,5.58,0,1,1-5.59,5.58A5.58,5.58,0,0,1,15.84,37.94Z"/></g></g></g></svg>