<svg xmlns="http://www.w3.org/2000/svg" viewBox="0 0 80 49.65"><defs><style>.cls-1{fill:#aeafab;fill-rule:evenodd;}</style></defs><title>programy-myjnie-standard</title><g id="Layer_2" data-name="Layer 2"><g id="myjnie-page"><g id="standard"><path class="cls-1" d="M66.52,4.55a10.13,10.13,0,0,1,3.23-3.18A9.76,9.76,0,0,1,74.29,0V3.24A5.15,5.15,0,0,0,71.6,4a8.07,8.07,0,0,0-2.42,2.5l-2.66-2M65.19,18.37A1.22,1.22,0,1,1,64,19.59,1.21,1.21,0,0,1,65.19,18.37ZM60.2,15A1.22,1.22,0,1,1,59,16.26,1.23,1.23,0,0,1,60.2,15Zm-5-3.34A1.22,1.22,0,1,1,54,12.92,1.22,1.22,0,0,1,55.2,11.7Zm10.12,1a1.21,1.21,0,1,1-1.21,1.21A1.2,1.2,0,0,1,65.32,12.72Zm-5-3.35a1.21,1.21,0,1,1-1.22,1.21A1.22,1.22,0,0,1,60.34,9.37Zm10.89,5.34L58.1,5.25A5.44,5.44,0,0,1,61.67,3a5.5,5.5,0,0,1,4.09,1l2.11,1.51L70,7A5.51,5.51,0,0,1,71.23,14.71ZM39.21,16h4.94A55,55,0,0,1,56,23.32H39.21ZM25.7,16h9.47v7.29H30.53c-4.64,0-10.93-.72-13.22-2.39A25.57,25.57,0,0,1,25.7,16ZM24.33,44.62A9.69,9.69,0,0,1,7,44L2.76,40.56A7.19,7.19,0,0,1,0,34.79V29.58c.64-.92,1.33-1.84,2.06-2.72V21H8a55.11,55.11,0,0,1,16.6-8.83,7.11,7.11,0,0,1,2.44-.42H43.51A8.31,8.31,0,0,1,47.65,13,132.32,132.32,0,0,1,65.95,25.27c8.69.26,12.14,3.64,13.24,8.85A.83.83,0,0,1,80,35V36.1a.83.83,0,0,1-.82.84L78,43.81a1,1,0,0,1-.9.81H75.87a9.67,9.67,0,0,1-17,0Zm43-10.23A5.58,5.58,0,1,1,61.8,40,5.58,5.58,0,0,1,67.38,34.39Zm-51.53,0A5.58,5.58,0,1,1,10.25,40,5.58,5.58,0,0,1,15.84,34.39Z"/></g></g></g></svg>